<svg xmlns="http://www.w3.org/2000/svg" viewBox="0 0 64 64">
  <!-- Monogramma AV del brand MaVi Beauty -->
  <rect width="64" height="64" rx="32" fill="#faf7f2"/>
  <g fill="#b78f6f" transform="translate(6.4 7.2) scale(0.325)">
    <g transform="translate(-63 -67.6)">
      <path d="M147.27,211.53l-14.91-41.41-22.77,28.85c-8.24,10.4-17.66,14.91-25.71,14.91-14.33,0-24.34-14.33-15.7-35.13l35.72-87.33,7.85-19.82,50.24,139.93h-14.72ZM131.57,167.97l-26.69-73.79-30.81,75.36c-7.65,18.84,2.16,33.56,16.29,33.56,7.85,0,17.07-4.32,25.32-14.91l15.9-20.21Z"/>
      <path d="M199.67,69.58c14.33,0,24.14,14.33,15.7,35.13l-43.57,107.15-50.24-139.73h14.52l15.11,41.41,22.77-28.85c8.24-10.4,17.66-15.11,25.71-15.11ZM193.19,80.37c-7.85,0-17.07,4.51-25.51,15.11l-15.7,20.21,26.69,73.79,30.81-75.56c7.65-18.84-1.96-33.56-16.29-33.56Z"/>
    </g>
  </g>
</svg>
