<svg xmlns="http://www.w3.org/2000/svg" viewBox="55.8 70.4 171.9 136.9">
  <!-- Logo MaVi Beauty — colore inchiostro del sito (#b78f6f) -->
  <g fill="#b78f6f">
    <path d="M178.91,165.59l-9.79-27.19-14.95,18.94c-5.41,6.83-11.6,9.79-16.88,9.79-9.41,0-15.98-9.41-10.31-23.06l23.45-57.34,5.15-13.01,32.99,91.87h-9.66ZM168.6,136.98l-17.52-48.45-20.23,49.48c-5.02,12.37,1.42,22.03,10.7,22.03,5.15,0,11.21-2.83,16.62-9.79l10.44-13.27Z"/>
    <path d="M213.31,72.39c9.41,0,15.85,9.41,10.31,23.06l-28.61,70.35-32.99-91.74h9.54l9.92,27.19,14.95-18.94c5.41-6.83,11.6-9.92,16.88-9.92ZM209.06,79.47c-5.15,0-11.21,2.96-16.75,9.92l-10.31,13.27,17.52,48.45,20.23-49.61c5.03-12.37-1.29-22.03-10.69-22.03Z"/>
    <path d="M136.36,73.56v30c0,5.09-1.08,10.12-3.16,14.76l-5.6,12.46v-55.25l-36.34,89.78-32.06-89.16v89.19l-1.41.06v-91.83h10.02l9.92,27.19.52,1.42,17.52,48.44,31.22-77.06h9.37Z"/>
    <path d="M214.8,165.54v-29.99c0-5.09,1.08-10.12,3.16-14.76l5.6-12.46v57.22h-8.76Z"/>
    <path d="M115.23,201.13c0,2.24-1.75,3.88-4.77,3.88h-4.62v-14.35h3.31c3.02,0,4.6.86,4.6,3,0,1.54-1.17,2.92-3.6,3.08,2.28.88,5.08,1.23,5.08,4.38ZM109.15,190.86h-.92c-.82.08-.97.41-.99,1.36v.88c0,2.12,1.21,2.98,2.71,3.6,1.54-.1,2.53-1.62,2.53-3.08,0-1.73-.97-2.75-3.33-2.75ZM113.77,200.76c0-3.8-5.51-2.96-6.54-6.39v8.74c0,1.52.14,1.73,1.89,1.73h1.17c2.36,0,3.47-1.71,3.47-4.07Z"/>
    <path d="M119.01,190.67h8.47v.19h-5.18c-1.58,0-1.85.16-1.89,1.31v5.37h4.93v.18h-4.93v5.8c.04,1.15.31,1.32,1.89,1.32h5.43v.18h-8.71v-14.35Z"/>
    <path d="M138.76,205.02l-1.56-4.34-2.38,3.02c-.86,1.09-1.85,1.56-2.69,1.56-1.5,0-2.55-1.5-1.64-3.68l3.74-9.15.82-2.08,5.26,14.65h-1.54ZM137.11,200.45l-2.79-7.73-3.23,7.89c-.8,1.97.23,3.52,1.71,3.52.82,0,1.79-.45,2.65-1.56l1.66-2.12Z"/>
    <path d="M148.06,205.08c-2.57,0-5.14-1.89-5.12-5.63v-8.78h1.36v8.78c0,3.33,2.05,4.89,4.15,4.89,2.2,0,4.46-1.71,4.46-4.89v-8.78h.25v8.78c.04,3.74-2.53,5.63-5.1,5.63Z"/>
    <path d="M166.31,190.86h-4.4v14.16h-1.38v-14.16h-4.4v-.19h10.17v.19Z"/>
    <path d="M174.51,198.56h-.02v6.45h-1.38v-6.45h-.02l-4.89-7.89h1.56l4.62,7.32,4.23-7.32h.25l-4.38,7.58v.25l.02.06Z"/>
  </g>
</svg>

